<svg xmlns="http://www.w3.org/2000/svg" viewBox="0 0 48 48"><title>4-Content Marketing_2</title><g id="_4-Content_Marketing_2" data-name="4-Content Marketing_2"><path d="M2,13H0V5A5.006,5.006,0,0,1,5,0H33V2H5A3,3,0,0,0,2,5Z"/><path d="M31,48a1,1,0,0,1-1-1V40H25V38h6a1,1,0,0,1,1,1v5.586l6.293-6.293A1,1,0,0,1,39,38h4a3,3,0,0,0,3-3V15h2V35a5.006,5.006,0,0,1-5,5H39.414l-7.707,7.707A1,1,0,0,1,31,48Z"/><path d="M47,16H33a1,1,0,0,1-1-1V1A1,1,0,0,1,33.707.293l14,14A1,1,0,0,1,47,16ZM34,14H44.586L34,3.414Z"/><path d="M47,36H21.08a1.006,1.006,0,0,1-.555-.168l-9-6a1,1,0,0,1,0-1.664l9-6A1.006,1.006,0,0,1,21.08,22H47v2H21.383l-7.5,5,7.5,5H47Z"/><path d="M23,48H3a3,3,0,0,1-3-3V13a3,3,0,0,1,3-3H23a3,3,0,0,1,3,3V23H24V13a1,1,0,0,0-1-1H3a1,1,0,0,0-1,1V45a1,1,0,0,0,1,1H23a1,1,0,0,0,1-1V39h2v6A3,3,0,0,1,23,48Z"/><rect x="1" y="38" width="24" height="2"/><rect x="12" y="42" width="2" height="2"/><rect x="1" y="16" width="24" height="2"/><rect x="21" y="28" width="26" height="2"/><rect x="20" y="23" width="2" height="12"/><rect x="4" y="20" width="12" height="2"/><rect x="4" y="28" width="5" height="2"/><rect x="4" y="24" width="8" height="2"/></g></svg>